<svg width="18" height="18" viewBox="0 0 18 18" fill="none" xmlns="http://www.w3.org/2000/svg">
<path d="M13.5441 13.5442L17.25 17.25M8.32217 1.5C6.97288 1.5 5.65388 1.9001 4.53198 2.64972C3.41008 3.39933 2.53566 4.46478 2.01931 5.71134C1.50296 6.9579 1.36785 8.32958 1.63109 9.65292C1.89432 10.9763 2.54407 12.1918 3.49817 13.1459C4.45227 14.1 5.66786 14.7497 6.99123 15.0129C8.31461 15.2762 9.68632 15.1411 10.9329 14.6247C12.1795 14.1084 13.245 13.234 13.9946 12.1121C14.7442 10.9902 15.1443 9.67128 15.1443 8.32201C15.1442 6.51274 14.4254 4.7776 13.146 3.49825C11.8667 2.2189 10.1315 1.50012 8.32217 1.5Z" stroke="#C3C3EA" stroke-width="1.5" stroke-miterlimit="10" stroke-linecap="round"/>
</svg>
