<svg width="24" height="24" viewBox="0 0 24 24" fill="none" xmlns="http://www.w3.org/2000/svg">
<path d="M18.8571 1H5.14286C4.83975 1 4.54906 1.11589 4.33474 1.32218C4.12041 1.52847 4 1.80825 4 2.09998V21.8997C3.99999 22.11 4.06259 22.3159 4.1804 22.4929C4.29822 22.67 4.4663 22.8109 4.66473 22.8989C4.86317 22.9868 5.08364 23.0182 5.30004 22.9893C5.51644 22.9604 5.71969 22.8724 5.88571 22.7357L12 17.7968L18.0457 22.6807C18.1525 22.7826 18.2791 22.8633 18.4184 22.918C18.5576 22.9728 18.7067 23.0005 18.8571 22.9997C19.0071 23.0034 19.1558 22.9733 19.2914 22.9117C19.5001 22.8292 19.6788 22.689 19.8049 22.5089C19.931 22.3289 19.9989 22.1169 20 21.8997V2.09998C20 1.80825 19.8796 1.52847 19.6653 1.32218C19.4509 1.11589 19.1602 1 18.8571 1ZM17.7143 19.5457L12.7314 15.5198C12.5261 15.3552 12.2673 15.265 12 15.265C11.7327 15.265 11.4739 15.3552 11.2686 15.5198L6.28571 19.5457V3.19997H17.7143V19.5457Z" fill="#D7D7D7"/>
</svg>
