<svg width="18" height="18" viewBox="0 0 18 18" fill="none" xmlns="http://www.w3.org/2000/svg">
<path d="M6.0006 16.5H12.0006C15.0156 16.5 15.5556 15.2925 15.7131 13.8225L16.2756 7.8225C16.4781 5.9925 15.9531 4.5 12.7506 4.5H5.2506C2.0481 4.5 1.5231 5.9925 1.7256 7.8225L2.2881 13.8225C2.4456 15.2925 2.9856 16.5 6.0006 16.5Z" stroke="#747474" stroke-width="1.5" stroke-miterlimit="10" stroke-linecap="round" stroke-linejoin="round"/>
<path d="M6 4.49902V3.89902C6 2.57152 6 1.49902 8.4 1.49902H9.6C12 1.49902 12 2.57152 12 3.89902V4.49902" stroke="#747474" stroke-width="1.5" stroke-miterlimit="10" stroke-linecap="round" stroke-linejoin="round"/>
<path d="M10.5 9.75V10.5C10.5 10.5075 10.5 10.5075 10.5 10.515C10.5 11.3325 10.4925 12 9 12C7.515 12 7.5 11.34 7.5 10.5225V9.75C7.5 9 7.5 9 8.25 9H9.75C10.5 9 10.5 9 10.5 9.75Z" stroke="#747474" stroke-width="1.5" stroke-miterlimit="10" stroke-linecap="round" stroke-linejoin="round"/>
<path d="M16.2375 8.24902C14.505 9.50902 12.525 10.259 10.5 10.514" stroke="#747474" stroke-width="1.5" stroke-miterlimit="10" stroke-linecap="round" stroke-linejoin="round"/>
<path d="M1.9668 8.45215C3.6543 9.60715 5.5593 10.3046 7.5018 10.5221" stroke="#747474" stroke-width="1.5" stroke-miterlimit="10" stroke-linecap="round" stroke-linejoin="round"/>
</svg>
