<svg width="14" height="14" viewBox="0 0 14 14" fill="none" xmlns="http://www.w3.org/2000/svg">
<path d="M6.9987 0.333008C3.32536 0.333008 0.332031 3.32634 0.332031 6.99967C0.332031 10.673 3.32536 13.6663 6.9987 13.6663C10.672 13.6663 13.6654 10.673 13.6654 6.99967C13.6654 3.32634 10.672 0.333008 6.9987 0.333008ZM9.8987 9.37967C9.80536 9.53967 9.6387 9.62634 9.46536 9.62634C9.3787 9.62634 9.29203 9.60634 9.21203 9.55301L7.14536 8.31967C6.63203 8.01301 6.25203 7.33967 6.25203 6.74634V4.01301C6.25203 3.73967 6.4787 3.51301 6.75203 3.51301C7.02536 3.51301 7.25203 3.73967 7.25203 4.01301V6.74634C7.25203 6.98634 7.45203 7.33967 7.6587 7.45967L9.72536 8.69301C9.96536 8.83301 10.0454 9.13967 9.8987 9.37967Z" fill="white" fill-opacity="0.75"/>
</svg>
