<svg width="497" height="227" viewBox="0 0 497 227" fill="none" xmlns="http://www.w3.org/2000/svg">
<path d="M0 24C0 10.7452 10.7452 0 24 0H472.201C485.456 0 496.201 10.7452 496.201 24V202.201C496.201 215.456 485.456 226.201 472.201 226.201H24C10.7452 226.201 0 215.456 0 202.201V24Z" fill="#0F0F36"/>
<rect x="132.745" y="65.4551" width="20" height="20" fill="url(#paint0_linear_427_8279)"/>
<rect x="98.9053" y="68.3848" width="16.9699" height="16.9699" fill="url(#paint1_linear_427_8279)"/>
<rect x="115.876" y="85.3555" width="16.9699" height="16.9699" fill="url(#paint2_linear_427_8279)"/>
<rect x="87.5913" y="85.3555" width="11.3143" height="11.3143" fill="url(#paint3_linear_427_8279)"/>
<rect x="98.9048" y="96.6689" width="11.3143" height="11.3143" fill="url(#paint4_linear_427_8279)"/>
<rect x="110.219" y="107.983" width="11.3143" height="11.3143" fill="url(#paint5_linear_427_8279)"/>
<rect x="91.1265" y="115.762" width="11.3143" height="11.3143" fill="url(#paint6_linear_427_8279)"/>
<rect x="57.4907" y="155.781" width="5" height="5" fill="#0072DC"/>
<rect x="102.44" y="127.075" width="11.3143" height="11.3143" fill="url(#paint7_linear_427_8279)"/>
<rect x="79.813" y="104.447" width="11.3143" height="11.3143" fill="url(#paint8_linear_427_8279)"/>
<rect x="69.9141" y="121.419" width="8.95681" height="8.95681" fill="url(#paint9_linear_427_8279)"/>
<rect x="79.1064" y="130.611" width="8.95681" height="8.95681" fill="url(#paint10_linear_427_8279)"/>
<rect x="64.0469" y="139.594" width="7.07038" height="7.07038" fill="url(#paint11_linear_427_8279)"/>
<rect x="71.1182" y="146.665" width="7.07038" height="7.07038" fill="url(#paint12_linear_427_8279)"/>
<rect x="88.2988" y="139.804" width="8.95681" height="8.95681" fill="url(#paint13_linear_427_8279)"/>
<rect x="121.532" y="119.297" width="11.3143" height="11.3143" fill="url(#paint14_linear_427_8279)"/>
<rect x="132.846" y="102.326" width="16.9699" height="16.9699" fill="url(#paint15_linear_427_8279)"/>
<mask id="path-19-outside-1_427_8279" maskUnits="userSpaceOnUse" x="179.201" y="83.1006" width="283" height="68" fill="black">
<rect fill="white" x="179.201" y="83.1006" width="283" height="68"/>
<path d="M215.867 138.101L212.142 126.343H194.812L191.019 138.101H180.662L197.786 88.7793H209.92L227.044 138.101H215.867ZM203.221 99.0332L197.034 118.379H209.954L203.836 99.0332H203.221ZM233.981 111.475C233.981 104.331 240.27 99.5801 249.67 99.5801C259.24 99.5801 264.879 103.579 265.426 110.791H256.232C255.719 108.364 253.429 106.86 249.738 106.86C246.183 106.86 243.551 108.467 243.551 110.859C243.551 112.705 245.158 113.833 248.644 114.619L255.719 116.157C263.034 117.764 266.315 120.84 266.315 126.479C266.315 133.999 259.582 138.921 249.704 138.921C239.757 138.921 233.742 134.854 233.058 127.607H242.765C243.517 130.171 245.944 131.641 249.909 131.641C253.771 131.641 256.437 130.034 256.437 127.607C256.437 125.762 255.002 124.634 251.686 123.916L244.85 122.378C237.536 120.771 233.981 117.285 233.981 111.475ZM297.656 99.7852C307.193 99.7852 313.037 107.031 313.037 119.233C313.037 131.401 307.261 138.682 297.827 138.682C292.427 138.682 288.291 136.323 286.446 132.324H285.83V149.893H275.884V100.4H285.523V106.587H286.138C288.189 102.349 292.461 99.7852 297.656 99.7852ZM294.273 130.376C299.639 130.376 302.818 126.206 302.818 119.233C302.818 112.329 299.605 108.125 294.307 108.125C289.009 108.125 285.728 112.363 285.728 119.268C285.728 126.172 289.009 130.376 294.273 130.376ZM322.606 138.101V100.4H332.553V138.101H322.606ZM327.596 95.1367C324.008 95.1367 321.718 93.0518 321.718 90.1123C321.718 87.1387 324.008 85.0879 327.596 85.0879C331.151 85.0879 333.475 87.1387 333.475 90.1123C333.475 93.0518 331.151 95.1367 327.596 95.1367ZM344.036 138.101V100.4H353.674V106.416H354.289C355.281 102.656 359.143 99.7852 363.86 99.7852C365.193 99.7852 366.833 99.9561 367.688 100.264V109.321C366.902 109.014 364.475 108.706 363.039 108.706C357.707 108.706 353.982 111.919 353.982 117.217V138.101H344.036ZM391.134 107.202C386.52 107.202 383.272 110.415 382.931 115.303H398.995C398.79 110.312 395.782 107.202 391.134 107.202ZM399.2 127.368H408.463C406.959 134.478 400.465 138.921 391.236 138.921C379.752 138.921 372.984 131.675 372.984 119.438C372.984 107.168 379.889 99.5801 391.1 99.5801C402.208 99.5801 408.771 106.655 408.771 118.618V121.66H382.896V122.173C383.033 127.778 386.314 131.265 391.51 131.265C395.44 131.265 398.141 129.863 399.2 127.368ZM418.408 138.101V100.4H428.354V138.101H418.408ZM423.398 95.1367C419.809 95.1367 417.519 93.0518 417.519 90.1123C417.519 87.1387 419.809 85.0879 423.398 85.0879C426.953 85.0879 429.277 87.1387 429.277 90.1123C429.277 93.0518 426.953 95.1367 423.398 95.1367ZM442.674 91.6162H452.62V100.776H460.618V108.604H452.62V125.557C452.62 128.838 454.124 130.342 457.508 130.342C458.807 130.342 459.456 130.308 460.413 130.205V137.793C459.183 138.032 457.371 138.237 455.457 138.237C446.297 138.237 442.674 135.264 442.674 127.915V108.604H436.693V100.776H442.674V91.6162Z"/>
</mask>
<path d="M215.867 138.101L212.142 126.343H194.812L191.019 138.101H180.662L197.786 88.7793H209.92L227.044 138.101H215.867ZM203.221 99.0332L197.034 118.379H209.954L203.836 99.0332H203.221ZM233.981 111.475C233.981 104.331 240.27 99.5801 249.67 99.5801C259.24 99.5801 264.879 103.579 265.426 110.791H256.232C255.719 108.364 253.429 106.86 249.738 106.86C246.183 106.86 243.551 108.467 243.551 110.859C243.551 112.705 245.158 113.833 248.644 114.619L255.719 116.157C263.034 117.764 266.315 120.84 266.315 126.479C266.315 133.999 259.582 138.921 249.704 138.921C239.757 138.921 233.742 134.854 233.058 127.607H242.765C243.517 130.171 245.944 131.641 249.909 131.641C253.771 131.641 256.437 130.034 256.437 127.607C256.437 125.762 255.002 124.634 251.686 123.916L244.85 122.378C237.536 120.771 233.981 117.285 233.981 111.475ZM297.656 99.7852C307.193 99.7852 313.037 107.031 313.037 119.233C313.037 131.401 307.261 138.682 297.827 138.682C292.427 138.682 288.291 136.323 286.446 132.324H285.83V149.893H275.884V100.4H285.523V106.587H286.138C288.189 102.349 292.461 99.7852 297.656 99.7852ZM294.273 130.376C299.639 130.376 302.818 126.206 302.818 119.233C302.818 112.329 299.605 108.125 294.307 108.125C289.009 108.125 285.728 112.363 285.728 119.268C285.728 126.172 289.009 130.376 294.273 130.376ZM322.606 138.101V100.4H332.553V138.101H322.606ZM327.596 95.1367C324.008 95.1367 321.718 93.0518 321.718 90.1123C321.718 87.1387 324.008 85.0879 327.596 85.0879C331.151 85.0879 333.475 87.1387 333.475 90.1123C333.475 93.0518 331.151 95.1367 327.596 95.1367ZM344.036 138.101V100.4H353.674V106.416H354.289C355.281 102.656 359.143 99.7852 363.86 99.7852C365.193 99.7852 366.833 99.9561 367.688 100.264V109.321C366.902 109.014 364.475 108.706 363.039 108.706C357.707 108.706 353.982 111.919 353.982 117.217V138.101H344.036ZM391.134 107.202C386.52 107.202 383.272 110.415 382.931 115.303H398.995C398.79 110.312 395.782 107.202 391.134 107.202ZM399.2 127.368H408.463C406.959 134.478 400.465 138.921 391.236 138.921C379.752 138.921 372.984 131.675 372.984 119.438C372.984 107.168 379.889 99.5801 391.1 99.5801C402.208 99.5801 408.771 106.655 408.771 118.618V121.66H382.896V122.173C383.033 127.778 386.314 131.265 391.51 131.265C395.44 131.265 398.141 129.863 399.2 127.368ZM418.408 138.101V100.4H428.354V138.101H418.408ZM423.398 95.1367C419.809 95.1367 417.519 93.0518 417.519 90.1123C417.519 87.1387 419.809 85.0879 423.398 85.0879C426.953 85.0879 429.277 87.1387 429.277 90.1123C429.277 93.0518 426.953 95.1367 423.398 95.1367ZM442.674 91.6162H452.62V100.776H460.618V108.604H452.62V125.557C452.62 128.838 454.124 130.342 457.508 130.342C458.807 130.342 459.456 130.308 460.413 130.205V137.793C459.183 138.032 457.371 138.237 455.457 138.237C446.297 138.237 442.674 135.264 442.674 127.915V108.604H436.693V100.776H442.674V91.6162Z" fill="white"/>
<path d="M215.867 138.101L214.914 138.403L215.135 139.101H215.867V138.101ZM212.142 126.343L213.095 126.041L212.874 125.343H212.142V126.343ZM194.812 126.343V125.343H194.084L193.861 126.036L194.812 126.343ZM191.019 138.101V139.101H191.747L191.97 138.408L191.019 138.101ZM180.662 138.101L179.717 137.773L179.256 139.101H180.662V138.101ZM197.786 88.7793V87.7793H197.075L196.841 88.4513L197.786 88.7793ZM209.92 88.7793L210.865 88.4513L210.631 87.7793H209.92V88.7793ZM227.044 138.101V139.101H228.45L227.989 137.773L227.044 138.101ZM203.221 99.0332V98.0332H202.491L202.268 98.7286L203.221 99.0332ZM197.034 118.379L196.082 118.074L195.665 119.379H197.034V118.379ZM209.954 118.379V119.379H211.319L210.908 118.077L209.954 118.379ZM203.836 99.0332L204.789 98.7317L204.569 98.0332H203.836V99.0332ZM216.82 137.799L213.095 126.041L211.188 126.645L214.914 138.403L216.82 137.799ZM212.142 125.343H194.812V127.343H212.142V125.343ZM193.861 126.036L190.067 137.794L191.97 138.408L195.764 126.65L193.861 126.036ZM191.019 137.101H180.662V139.101H191.019V137.101ZM181.607 138.429L198.731 89.1073L196.841 88.4513L179.717 137.773L181.607 138.429ZM197.786 89.7793H209.92V87.7793H197.786V89.7793ZM208.975 89.1073L226.099 138.429L227.989 137.773L210.865 88.4513L208.975 89.1073ZM227.044 137.101H215.867V139.101H227.044V137.101ZM202.268 98.7286L196.082 118.074L197.987 118.683L204.173 99.3378L202.268 98.7286ZM197.034 119.379H209.954V117.379H197.034V119.379ZM210.908 118.077L204.789 98.7317L202.882 99.3347L209.001 118.68L210.908 118.077ZM203.836 98.0332H203.221V100.033H203.836V98.0332ZM265.426 110.791V111.791H266.505L266.424 110.715L265.426 110.791ZM256.232 110.791L255.254 110.998L255.421 111.791H256.232V110.791ZM248.644 114.619L248.424 115.595L248.432 115.596L248.644 114.619ZM255.719 116.157L255.934 115.181L255.932 115.18L255.719 116.157ZM233.058 127.607V126.607H231.959L232.063 127.701L233.058 127.607ZM242.765 127.607L243.725 127.326L243.514 126.607H242.765V127.607ZM251.686 123.916L251.467 124.892L251.475 124.893L251.686 123.916ZM244.85 122.378L245.07 121.402L245.065 121.401L244.85 122.378ZM234.981 111.475C234.981 108.229 236.396 105.545 238.904 103.646C241.435 101.729 245.127 100.58 249.67 100.58V98.5801C244.812 98.5801 240.66 99.8067 237.697 102.051C234.71 104.313 232.981 107.577 232.981 111.475H234.981ZM249.67 100.58C254.332 100.58 257.905 101.556 260.352 103.296C262.765 105.012 264.176 107.533 264.429 110.867L266.424 110.715C266.129 106.838 264.447 103.753 261.511 101.666C258.609 99.6033 254.578 98.5801 249.67 98.5801V100.58ZM265.426 109.791H256.232V111.791H265.426V109.791ZM257.21 110.584C256.559 107.499 253.667 105.86 249.738 105.86V107.86C253.192 107.86 254.88 109.23 255.254 110.998L257.21 110.584ZM249.738 105.86C247.824 105.86 246.078 106.291 244.775 107.119C243.456 107.957 242.551 109.244 242.551 110.859H244.551C244.551 110.082 244.963 109.369 245.848 108.807C246.75 108.233 248.097 107.86 249.738 107.86V105.86ZM242.551 110.859C242.551 112.141 243.139 113.17 244.201 113.944C245.206 114.678 246.64 115.192 248.424 115.595L248.864 113.644C247.162 113.26 246.05 112.818 245.38 112.329C244.767 111.881 244.551 111.423 244.551 110.859H242.551ZM248.432 115.596L255.507 117.134L255.932 115.18L248.857 113.642L248.432 115.596ZM255.505 117.134C259.085 117.92 261.524 119.037 263.066 120.525C264.568 121.976 265.315 123.875 265.315 126.479H267.315C267.315 123.445 266.422 120.986 264.455 119.087C262.527 117.225 259.668 116.001 255.934 115.181L255.505 117.134ZM265.315 126.479C265.315 129.906 263.795 132.725 261.117 134.718C258.414 136.728 254.488 137.921 249.704 137.921V139.921C254.797 139.921 259.177 138.653 262.31 136.322C265.468 133.974 267.315 130.573 267.315 126.479H265.315ZM249.704 137.921C244.851 137.921 241.08 136.927 238.469 135.154C235.892 133.405 234.369 130.85 234.054 127.514L232.063 127.701C232.431 131.611 234.258 134.713 237.346 136.809C240.4 138.882 244.61 139.921 249.704 139.921V137.921ZM233.058 128.607H242.765V126.607H233.058V128.607ZM241.806 127.889C242.256 129.423 243.218 130.638 244.634 131.452C246.027 132.254 247.813 132.641 249.909 132.641V130.641C248.04 130.641 246.63 130.293 245.631 129.718C244.653 129.157 244.027 128.356 243.725 127.326L241.806 127.889ZM249.909 132.641C251.962 132.641 253.792 132.216 255.144 131.386C256.518 130.544 257.437 129.245 257.437 127.607H255.437C255.437 128.397 255.023 129.115 254.098 129.682C253.152 130.262 251.717 130.641 249.909 130.641V132.641ZM257.437 127.607C257.437 126.369 256.93 125.337 255.919 124.55C254.968 123.809 253.605 123.308 251.898 122.939L251.475 124.893C253.083 125.242 254.095 125.664 254.69 126.128C255.227 126.545 255.437 127.001 255.437 127.607H257.437ZM251.906 122.94L245.07 121.402L244.631 123.354L251.467 124.892L251.906 122.94ZM245.065 121.401C241.506 120.62 238.995 119.407 237.379 117.795C235.791 116.211 234.981 114.156 234.981 111.475H232.981C232.981 114.604 233.948 117.197 235.966 119.211C237.956 121.196 240.88 122.53 244.636 123.355L245.065 121.401ZM286.446 132.324L287.353 131.905L287.085 131.324H286.446V132.324ZM285.83 132.324V131.324H284.83V132.324H285.83ZM285.83 149.893V150.893H286.83V149.893H285.83ZM275.884 149.893H274.884V150.893H275.884V149.893ZM275.884 100.4V99.4004H274.884V100.4H275.884ZM285.523 100.4H286.523V99.4004H285.523V100.4ZM285.523 106.587H284.523V107.587H285.523V106.587ZM286.138 106.587V107.587H286.765L287.038 107.022L286.138 106.587ZM297.656 100.785C302.147 100.785 305.693 102.478 308.14 105.556C310.61 108.662 312.037 113.278 312.037 119.233H314.037C314.037 112.986 312.542 107.879 309.706 104.311C306.847 100.715 302.702 98.7852 297.656 98.7852V100.785ZM312.037 119.233C312.037 125.173 310.626 129.792 308.183 132.903C305.764 135.985 302.261 137.682 297.827 137.682V139.682C302.828 139.682 306.93 137.738 309.756 134.138C312.56 130.567 314.037 125.462 314.037 119.233H312.037ZM297.827 137.682C292.722 137.682 288.999 135.471 287.353 131.905L285.538 132.743C287.583 137.175 292.132 139.682 297.827 139.682V137.682ZM286.446 131.324H285.83V133.324H286.446V131.324ZM284.83 132.324V149.893H286.83V132.324H284.83ZM285.83 148.893H275.884V150.893H285.83V148.893ZM276.884 149.893V100.4H274.884V149.893H276.884ZM275.884 101.4H285.523V99.4004H275.884V101.4ZM284.523 100.4V106.587H286.523V100.4H284.523ZM285.523 107.587H286.138V105.587H285.523V107.587ZM287.038 107.022C288.905 103.164 292.805 100.785 297.656 100.785V98.7852C292.117 98.7852 287.472 101.534 285.238 106.151L287.038 107.022ZM294.273 131.376C297.244 131.376 299.683 130.206 301.351 128.027C302.994 125.882 303.818 122.856 303.818 119.233H301.818C301.818 122.584 301.052 125.129 299.763 126.812C298.501 128.461 296.668 129.376 294.273 129.376V131.376ZM303.818 119.233C303.818 115.641 302.983 112.625 301.343 110.482C299.678 108.308 297.25 107.125 294.307 107.125V109.125C296.661 109.125 298.489 110.044 299.755 111.698C301.045 113.383 301.818 115.921 301.818 119.233H303.818ZM294.307 107.125C291.362 107.125 288.919 108.317 287.239 110.497C285.581 112.646 284.728 115.671 284.728 119.268H286.728C286.728 115.96 287.515 113.413 288.822 111.718C290.107 110.052 291.954 109.125 294.307 109.125V107.125ZM284.728 119.268C284.728 122.864 285.581 125.881 287.235 128.022C288.911 130.193 291.346 131.376 294.273 131.376V129.376C291.936 129.376 290.098 128.457 288.818 126.8C287.515 125.113 286.728 122.575 286.728 119.268H284.728ZM322.606 138.101H321.606V139.101H322.606V138.101ZM322.606 100.4V99.4004H321.606V100.4H322.606ZM332.553 100.4H333.553V99.4004H332.553V100.4ZM332.553 138.101V139.101H333.553V138.101H332.553ZM323.606 138.101V100.4H321.606V138.101H323.606ZM322.606 101.4H332.553V99.4004H322.606V101.4ZM331.553 100.4V138.101H333.553V100.4H331.553ZM332.553 137.101H322.606V139.101H332.553V137.101ZM327.596 94.1367C325.992 94.1367 324.772 93.6721 323.968 92.9725C323.174 92.2822 322.718 91.3058 322.718 90.1123H320.718C320.718 91.8582 321.406 93.3941 322.655 94.4811C323.893 95.5588 325.612 96.1367 327.596 96.1367V94.1367ZM322.718 90.1123C322.718 88.8993 323.176 87.9249 323.966 87.2409C324.768 86.5462 325.988 86.0879 327.596 86.0879V84.0879C325.616 84.0879 323.897 84.6549 322.657 85.7291C321.404 86.8139 320.718 88.3517 320.718 90.1123H322.718ZM327.596 86.0879C329.186 86.0879 330.408 86.5452 331.216 87.2422C332.012 87.9287 332.475 88.9039 332.475 90.1123H334.475C334.475 88.3471 333.777 86.8101 332.522 85.7277C331.279 84.6559 329.562 84.0879 327.596 84.0879V86.0879ZM332.475 90.1123C332.475 91.3012 332.013 92.2783 331.214 92.9711C330.404 93.6732 329.182 94.1367 327.596 94.1367V96.1367C329.566 96.1367 331.283 95.5578 332.524 94.4825C333.775 93.3979 334.475 91.8629 334.475 90.1123H332.475ZM344.036 138.101H343.036V139.101H344.036V138.101ZM344.036 100.4V99.4004H343.036V100.4H344.036ZM353.674 100.4H354.674V99.4004H353.674V100.4ZM353.674 106.416H352.674V107.416H353.674V106.416ZM354.289 106.416V107.416H355.06L355.256 106.671L354.289 106.416ZM367.688 100.264H368.688V99.5608L368.027 99.3228L367.688 100.264ZM367.688 109.321L367.324 110.253L368.688 110.786V109.321H367.688ZM353.982 138.101V139.101H354.982V138.101H353.982ZM345.036 138.101V100.4H343.036V138.101H345.036ZM344.036 101.4H353.674V99.4004H344.036V101.4ZM352.674 100.4V106.416H354.674V100.4H352.674ZM353.674 107.416H354.289V105.416H353.674V107.416ZM355.256 106.671C356.115 103.415 359.527 100.785 363.86 100.785V98.7852C358.759 98.7852 354.447 101.898 353.322 106.161L355.256 106.671ZM363.86 100.785C365.163 100.785 366.662 100.957 367.349 101.205L368.027 99.3228C367.005 98.955 365.223 98.7852 363.86 98.7852V100.785ZM366.688 100.264V109.321H368.688V100.264H366.688ZM368.052 108.39C367.531 108.186 366.614 108.021 365.737 107.907C364.825 107.788 363.814 107.706 363.039 107.706V109.706C363.7 109.706 364.62 109.778 365.478 109.89C366.369 110.006 367.059 110.149 367.324 110.253L368.052 108.39ZM363.039 107.706C360.175 107.706 357.653 108.571 355.835 110.238C354.008 111.914 352.982 114.321 352.982 117.217H354.982C354.982 114.815 355.819 112.966 357.187 111.712C358.565 110.448 360.571 109.706 363.039 109.706V107.706ZM352.982 117.217V138.101H354.982V117.217H352.982ZM353.982 137.101H344.036V139.101H353.982V137.101ZM382.931 115.303L381.933 115.233L381.858 116.303H382.931V115.303ZM398.995 115.303V116.303H400.037L399.994 115.262L398.995 115.303ZM399.2 127.368V126.368H398.538L398.28 126.977L399.2 127.368ZM408.463 127.368L409.441 127.575L409.697 126.368H408.463V127.368ZM408.771 121.66V122.66H409.771V121.66H408.771ZM382.896 121.66V120.66H381.896V121.66H382.896ZM382.896 122.173H381.896V122.185L381.897 122.197L382.896 122.173ZM391.134 106.202C388.585 106.202 386.36 107.095 384.727 108.708C383.099 110.317 382.118 112.583 381.933 115.233L383.928 115.372C384.085 113.135 384.899 111.35 386.133 110.131C387.362 108.916 389.069 108.202 391.134 108.202V106.202ZM382.931 116.303H398.995V114.303H382.931V116.303ZM399.994 115.262C399.884 112.577 399.013 110.299 397.449 108.685C395.877 107.064 393.691 106.202 391.134 106.202V108.202C393.225 108.202 394.867 108.896 396.013 110.077C397.165 111.266 397.901 113.039 397.996 115.344L399.994 115.262ZM399.2 128.368H408.463V126.368H399.2V128.368ZM407.485 127.161C406.108 133.669 400.151 137.921 391.236 137.921V139.921C400.779 139.921 407.81 135.286 409.441 127.575L407.485 127.161ZM391.236 137.921C385.71 137.921 381.434 136.184 378.534 133.085C375.625 129.977 373.984 125.378 373.984 119.438H371.984C371.984 125.735 373.728 130.877 377.074 134.452C380.428 138.035 385.278 139.921 391.236 139.921V137.921ZM373.984 119.438C373.984 113.486 375.657 108.784 378.577 105.582C381.486 102.39 385.73 100.58 391.1 100.58V98.5801C385.258 98.5801 380.444 100.564 377.099 104.234C373.763 107.893 371.984 113.121 371.984 119.438H373.984ZM391.1 100.58C396.435 100.58 400.565 102.273 403.368 105.293C406.18 108.324 407.771 112.813 407.771 118.618H409.771C409.771 112.46 408.08 107.431 404.834 103.933C401.578 100.425 396.873 98.5801 391.1 98.5801V100.58ZM407.771 118.618V121.66H409.771V118.618H407.771ZM408.771 120.66H382.896V122.66H408.771V120.66ZM381.896 121.66V122.173H383.896V121.66H381.896ZM381.897 122.197C381.97 125.187 382.886 127.717 384.58 129.508C386.282 131.308 388.679 132.265 391.51 132.265V130.265C389.146 130.265 387.304 129.478 386.033 128.134C384.753 126.78 383.96 124.764 383.896 122.148L381.897 122.197ZM391.51 132.265C395.646 132.265 398.84 130.775 400.121 127.759L398.28 126.977C397.442 128.951 395.235 130.265 391.51 130.265V132.265ZM418.408 138.101H417.408V139.101H418.408V138.101ZM418.408 100.4V99.4004H417.408V100.4H418.408ZM428.354 100.4H429.354V99.4004H428.354V100.4ZM428.354 138.101V139.101H429.354V138.101H428.354ZM419.408 138.101V100.4H417.408V138.101H419.408ZM418.408 101.4H428.354V99.4004H418.408V101.4ZM427.354 100.4V138.101H429.354V100.4H427.354ZM428.354 137.101H418.408V139.101H428.354V137.101ZM423.398 94.1367C421.794 94.1367 420.573 93.6721 419.769 92.9725C418.976 92.2822 418.519 91.3058 418.519 90.1123H416.519C416.519 91.8582 417.207 93.3941 418.456 94.4811C419.695 95.5588 421.413 96.1367 423.398 96.1367V94.1367ZM418.519 90.1123C418.519 88.8993 418.978 87.9249 419.767 87.2409C420.569 86.5462 421.79 86.0879 423.398 86.0879V84.0879C421.418 84.0879 419.698 84.6549 418.458 85.7291C417.206 86.8139 416.519 88.3517 416.519 90.1123H418.519ZM423.398 86.0879C424.987 86.0879 426.209 86.5452 427.017 87.2422C427.813 87.9287 428.277 88.9039 428.277 90.1123H430.277C430.277 88.3471 429.579 86.8101 428.324 85.7277C427.081 84.6559 425.363 84.0879 423.398 84.0879V86.0879ZM428.277 90.1123C428.277 91.3012 427.815 92.2783 427.016 92.9711C426.206 93.6732 424.983 94.1367 423.398 94.1367V96.1367C425.368 96.1367 427.085 95.5578 428.325 94.4825C429.577 93.3979 430.277 91.8629 430.277 90.1123H428.277ZM442.674 91.6162V90.6162H441.674V91.6162H442.674ZM452.62 91.6162H453.62V90.6162H452.62V91.6162ZM452.62 100.776H451.62V101.776H452.62V100.776ZM460.618 100.776H461.618V99.7764H460.618V100.776ZM460.618 108.604V109.604H461.618V108.604H460.618ZM452.62 108.604V107.604H451.62V108.604H452.62ZM460.413 130.205H461.413V129.092L460.307 129.211L460.413 130.205ZM460.413 137.793L460.604 138.775L461.413 138.617V137.793H460.413ZM442.674 108.604H443.674V107.604H442.674V108.604ZM436.693 108.604H435.693V109.604H436.693V108.604ZM436.693 100.776V99.7764H435.693V100.776H436.693ZM442.674 100.776V101.776H443.674V100.776H442.674ZM442.674 92.6162H452.62V90.6162H442.674V92.6162ZM451.62 91.6162V100.776H453.62V91.6162H451.62ZM452.62 101.776H460.618V99.7764H452.62V101.776ZM459.618 100.776V108.604H461.618V100.776H459.618ZM460.618 107.604H452.62V109.604H460.618V107.604ZM451.62 108.604V125.557H453.62V108.604H451.62ZM451.62 125.557C451.62 127.329 452.025 128.841 453.094 129.892C454.159 130.941 455.691 131.342 457.508 131.342V129.342C455.941 129.342 455.029 128.991 454.497 128.467C453.968 127.946 453.62 127.065 453.62 125.557H451.62ZM457.508 131.342C458.835 131.342 459.521 131.306 460.52 131.199L460.307 129.211C459.392 129.309 458.779 129.342 457.508 129.342V131.342ZM459.413 130.205V137.793H461.413V130.205H459.413ZM460.222 136.811C459.055 137.038 457.308 137.237 455.457 137.237V139.237C457.435 139.237 459.31 139.026 460.604 138.775L460.222 136.811ZM455.457 137.237C450.939 137.237 448.036 136.494 446.26 135.055C444.539 133.66 443.674 131.437 443.674 127.915H441.674C441.674 131.742 442.62 134.68 445.001 136.609C447.327 138.494 450.815 139.237 455.457 139.237V137.237ZM443.674 127.915V108.604H441.674V127.915H443.674ZM442.674 107.604H436.693V109.604H442.674V107.604ZM437.693 108.604V100.776H435.693V108.604H437.693ZM436.693 101.776H442.674V99.7764H436.693V101.776ZM443.674 100.776V91.6162H441.674V100.776H443.674Z" fill="white" mask="url(#path-19-outside-1_427_8279)"/>
<defs>
<linearGradient id="paint0_linear_427_8279" x1="151.938" y1="66.263" x2="131.432" y2="86.7691" gradientUnits="userSpaceOnUse">
<stop stop-color="#FFF2F7"/>
<stop offset="1" stop-color="#FCACC9"/>
</linearGradient>
<linearGradient id="paint1_linear_427_8279" x1="115.19" y1="69.0703" x2="97.7909" y2="86.4696" gradientUnits="userSpaceOnUse">
<stop stop-color="#FFF2F7"/>
<stop offset="0.671018" stop-color="#FF8CB6"/>
</linearGradient>
<linearGradient id="paint2_linear_427_8279" x1="132.161" y1="86.041" x2="114.762" y2="103.44" gradientUnits="userSpaceOnUse">
<stop stop-color="#FFF2F7"/>
<stop offset="0.671018" stop-color="#FF8CB6"/>
</linearGradient>
<linearGradient id="paint3_linear_427_8279" x1="98.4489" y1="85.8125" x2="86.8483" y2="97.4132" gradientUnits="userSpaceOnUse">
<stop stop-color="#FD8FB5"/>
<stop offset="0.821559" stop-color="#EA63E7"/>
</linearGradient>
<linearGradient id="paint4_linear_427_8279" x1="109.762" y1="97.126" x2="98.1618" y2="108.727" gradientUnits="userSpaceOnUse">
<stop stop-color="#FD8FB5"/>
<stop offset="0.821559" stop-color="#EA63E7"/>
</linearGradient>
<linearGradient id="paint5_linear_427_8279" x1="121.076" y1="108.44" x2="109.476" y2="120.041" gradientUnits="userSpaceOnUse">
<stop stop-color="#FD8FB5"/>
<stop offset="0.821559" stop-color="#EA63E7"/>
</linearGradient>
<linearGradient id="paint6_linear_427_8279" x1="101.984" y1="116.219" x2="90.3835" y2="127.819" gradientUnits="userSpaceOnUse">
<stop stop-color="#FD8FB5"/>
<stop offset="0.821559" stop-color="#C86AFF"/>
</linearGradient>
<linearGradient id="paint7_linear_427_8279" x1="113.298" y1="127.532" x2="101.697" y2="139.133" gradientUnits="userSpaceOnUse">
<stop stop-color="#FD8FB5"/>
<stop offset="0.821559" stop-color="#C86AFF"/>
</linearGradient>
<linearGradient id="paint8_linear_427_8279" x1="90.6706" y1="104.904" x2="79.07" y2="116.505" gradientUnits="userSpaceOnUse">
<stop stop-color="#FD8FB5"/>
<stop offset="0.821559" stop-color="#C86AFF"/>
</linearGradient>
<linearGradient id="paint9_linear_427_8279" x1="78.5093" y1="121.781" x2="69.3259" y2="130.964" gradientUnits="userSpaceOnUse">
<stop offset="0.167448" stop-color="#C86AFF"/>
<stop offset="0.821559" stop-color="#538FF9"/>
</linearGradient>
<linearGradient id="paint10_linear_427_8279" x1="87.7017" y1="130.973" x2="78.5183" y2="140.157" gradientUnits="userSpaceOnUse">
<stop offset="0.167448" stop-color="#C86AFF"/>
<stop offset="0.821559" stop-color="#538FF9"/>
</linearGradient>
<linearGradient id="paint11_linear_427_8279" x1="70.8319" y1="139.879" x2="63.5826" y2="147.129" gradientUnits="userSpaceOnUse">
<stop offset="0.167448" stop-color="#5390F9"/>
<stop offset="0.821559" stop-color="#0072DC"/>
</linearGradient>
<linearGradient id="paint12_linear_427_8279" x1="77.9031" y1="146.951" x2="70.6539" y2="154.2" gradientUnits="userSpaceOnUse">
<stop offset="0.167448" stop-color="#5390F9"/>
<stop offset="0.821559" stop-color="#0072DC"/>
</linearGradient>
<linearGradient id="paint13_linear_427_8279" x1="96.8941" y1="140.166" x2="87.7106" y2="149.349" gradientUnits="userSpaceOnUse">
<stop offset="0.167448" stop-color="#C86AFF"/>
<stop offset="0.821559" stop-color="#538FF9"/>
</linearGradient>
<linearGradient id="paint14_linear_427_8279" x1="132.39" y1="119.754" x2="120.789" y2="131.355" gradientUnits="userSpaceOnUse">
<stop stop-color="#FD8FB5"/>
<stop offset="0.821559" stop-color="#EA63E7"/>
</linearGradient>
<linearGradient id="paint15_linear_427_8279" x1="149.131" y1="103.012" x2="131.732" y2="120.411" gradientUnits="userSpaceOnUse">
<stop stop-color="#FFF2F7"/>
<stop offset="0.671018" stop-color="#FF8CB6"/>
</linearGradient>
</defs>
</svg>
