<svg width="29" height="12" viewBox="0 0 29 12" fill="none" xmlns="http://www.w3.org/2000/svg">
<path d="M28.4551 4H27.6051C27.3101 3.16493 26.8341 2.40545 26.2111 1.776L26.2011 1.76C26.1971 1.755 26.1911 1.754 26.1861 1.75C25.6303 1.19667 24.9715 0.757422 24.2471 0.457001L24.2061 0.441999C23.4914 0.150318 22.727 0.000205903 21.9551 0C20.8361 0.00160119 19.7399 0.31606 18.7903 0.907856C17.8407 1.49965 17.0755 2.3452 16.5811 3.349C16.0678 3.12728 15.5146 3.01298 14.9555 3.01315C14.3964 3.01332 13.8432 3.12796 13.3301 3.35C13.044 2.76894 12.6662 2.23779 12.2111 1.777L12.2011 1.761C12.1971 1.756 12.1911 1.755 12.1861 1.751C11.6303 1.19767 10.9716 0.758421 10.2471 0.458L10.2061 0.443001C9.49164 0.150535 8.72706 6.48619e-05 7.95508 0C5.34808 0 3.13108 1.673 2.30508 4H1.45508C1.32247 4 1.19529 4.05268 1.10152 4.14645C1.00776 4.24021 0.955078 4.36739 0.955078 4.5C0.955078 4.63261 1.00776 4.75979 1.10152 4.85355C1.19529 4.94732 1.32247 5 1.45508 5H2.04508C1.99008 5.326 1.95508 5.659 1.95508 6C1.95508 9.309 4.64608 12 7.95508 12C11.2641 12 13.9551 9.309 13.9551 6C13.9551 5.411 13.8661 4.843 13.7071 4.305C14.0991 4.12729 14.5246 4.03537 14.9551 4.03537C15.3855 4.03537 15.811 4.12729 16.2031 4.305C16.0393 4.85514 15.9558 5.42601 15.9551 6C15.9551 9.309 18.6461 12 21.9551 12C25.2641 12 27.9551 9.309 27.9551 6C27.9551 5.659 27.9201 5.326 27.8651 5H28.4551C28.5877 5 28.7149 4.94732 28.8086 4.85355C28.9024 4.75979 28.9551 4.63261 28.9551 4.5C28.9551 4.36739 28.9024 4.24021 28.8086 4.14645C28.7149 4.05268 28.5877 4 28.4551 4ZM7.95508 11C6.75408 11 5.66608 10.557 4.80308 9.849L6.97908 7.611C7.06994 7.51562 7.11949 7.38823 7.11697 7.25653C7.11444 7.12482 7.06003 6.99943 6.96558 6.9076C6.87112 6.81578 6.74424 6.76494 6.61251 6.76614C6.48078 6.76734 6.35485 6.82047 6.26208 6.914L4.09708 9.141C3.39408 8.28 2.95508 7.196 2.95508 6C2.95508 3.243 5.19808 1 7.95508 1C8.35108 1 8.73208 1.058 9.10208 1.146L4.27308 5.975C4.17932 6.06889 4.12671 6.19617 4.1268 6.32885C4.12689 6.46154 4.17969 6.58875 4.27358 6.6825C4.36746 6.77625 4.49475 6.82887 4.62743 6.82878C4.76011 6.82868 4.88732 6.77589 4.98108 6.682L10.1391 1.524C10.4841 1.693 10.8031 1.903 11.0981 2.144L7.70108 5.477C7.60859 5.5703 7.55654 5.69625 7.55618 5.82762C7.55582 5.95899 7.60717 6.08523 7.69914 6.17904C7.79111 6.27285 7.9163 6.32669 8.04766 6.32893C8.17901 6.33117 8.30596 6.28162 8.40108 6.191L11.8061 2.85C12.5131 3.712 12.9551 4.8 12.9551 6C12.9551 8.757 10.7121 11 7.95508 11ZM21.9551 11C20.7541 11 19.6661 10.557 18.8031 9.849L20.9791 7.611C21.0699 7.51562 21.1195 7.38823 21.117 7.25653C21.1144 7.12482 21.06 6.99943 20.9656 6.9076C20.8711 6.81578 20.7442 6.76494 20.6125 6.76614C20.4808 6.76734 20.3548 6.82047 20.2621 6.914L18.0971 9.141C17.3941 8.28 16.9551 7.196 16.9551 6C16.9551 3.243 19.1981 1 21.9551 1C22.3511 1 22.7321 1.058 23.1021 1.146L18.2731 5.975C18.1793 6.06889 18.1267 6.19617 18.1268 6.32885C18.1269 6.46154 18.1797 6.58875 18.2736 6.6825C18.3675 6.77625 18.4947 6.82887 18.6274 6.82878C18.7601 6.82868 18.8873 6.77589 18.9811 6.682L24.1391 1.524C24.4841 1.693 24.8031 1.903 25.0981 2.144L21.7011 5.477C21.6086 5.5703 21.5565 5.69625 21.5562 5.82762C21.5558 5.95899 21.6072 6.08523 21.6991 6.17904C21.7911 6.27285 21.9163 6.32669 22.0477 6.32893C22.179 6.33117 22.306 6.28162 22.4011 6.191L25.8061 2.85C26.5131 3.712 26.9551 4.8 26.9551 6C26.9551 8.757 24.7121 11 21.9551 11Z" fill="white"/>
</svg>
