<svg width="17" height="10" viewBox="0 0 17 10" fill="none" xmlns="http://www.w3.org/2000/svg">
<path d="M8.73578 9.58274C8.52339 9.58392 8.31285 9.54488 8.11623 9.46787C7.9196 9.39086 7.74077 9.27739 7.58998 9.13397L1.13476 2.94403C0.830877 2.65264 0.660156 2.25742 0.660156 1.84532C0.660156 1.43322 0.830877 1.038 1.13476 0.746605C1.43865 0.455208 1.8508 0.291504 2.28056 0.291504C2.71032 0.291504 3.12248 0.455208 3.42636 0.746605L8.73578 5.8533L14.0452 0.762081C14.3539 0.508562 14.751 0.376087 15.1572 0.39113C15.5633 0.406174 15.9486 0.567627 16.236 0.843226C16.5234 1.11882 16.6918 1.48827 16.7075 1.87773C16.7232 2.2672 16.585 2.648 16.3207 2.94403L9.86544 9.13397C9.56485 9.41986 9.15914 9.58103 8.73578 9.58274Z" fill="#353535"/>
</svg>
