<svg width="24" height="24" viewBox="0 0 24 24" fill="none" xmlns="http://www.w3.org/2000/svg">
<g clip-path="url(#clip0_283_1418)">
<path d="M4.88233 6.17627H3.58822C2.90178 6.17627 2.24346 6.44896 1.75807 6.93434C1.27269 7.41973 1 8.07805 1 8.76449V20.4115C1 21.0979 1.27269 21.7562 1.75807 22.2416C2.24346 22.727 2.90178 22.9997 3.58822 22.9997H15.2352C15.9216 22.9997 16.58 22.727 17.0654 22.2416C17.5507 21.7562 17.8234 21.0979 17.8234 20.4115V19.1174" stroke="#0072DC" stroke-width="2" stroke-linecap="round" stroke-linejoin="round"/>
<path d="M16.5295 3.58836L20.4118 7.47069M22.2041 5.63952C22.7138 5.12984 23.0002 4.43857 23.0002 3.71777C23.0002 2.99697 22.7138 2.3057 22.2041 1.79602C21.6945 1.28634 21.0032 1 20.2824 1C19.5616 1 18.8703 1.28634 18.3606 1.79602L7.4707 12.6471V16.5295H11.353L22.2041 5.63952Z" stroke="#0072DC" stroke-width="2" stroke-linecap="round" stroke-linejoin="round"/>
</g>
<defs>
<clipPath id="clip0_283_1418">
<rect width="24" height="24" fill="white"/>
</clipPath>
</defs>
</svg>
