<svg width="25" height="24" viewBox="0 0 25 24" fill="none" xmlns="http://www.w3.org/2000/svg">
<path d="M5.90039 2.09961H19.1004C20.2004 2.09961 21.1004 2.99961 21.1004 4.09961V6.29961C21.1004 7.09961 20.6004 8.09961 20.1004 8.59961L15.8004 12.3996C15.2004 12.8996 14.8004 13.8996 14.8004 14.6996V18.9996C14.8004 19.5996 14.4004 20.3996 13.9004 20.6996L12.5004 21.5996C11.2004 22.3996 9.40039 21.4996 9.40039 19.8996V14.5996C9.40039 13.8996 9.00039 12.9996 8.60039 12.4996L4.80039 8.49961C4.30039 7.99961 3.90039 7.09961 3.90039 6.49961V4.19961C3.90039 2.99961 4.80039 2.09961 5.90039 2.09961Z" stroke="#656464" stroke-width="1.5" stroke-miterlimit="10" stroke-linecap="round" stroke-linejoin="round"/>
<path d="M11.43 2.09961L6.5 9.99961" stroke="#656464" stroke-width="1.5" stroke-miterlimit="10" stroke-linecap="round" stroke-linejoin="round"/>
</svg>
