<svg width="17" height="4" viewBox="0 0 17 4" fill="none" xmlns="http://www.w3.org/2000/svg">
<path d="M8.45313 0C8.0816 0 7.71842 0.117298 7.4095 0.337061C7.10059 0.556824 6.85982 0.869181 6.71764 1.23463C6.57547 1.60009 6.53827 2.00222 6.61075 2.39018C6.68323 2.77814 6.86214 3.13451 7.12485 3.41421C7.38755 3.69392 7.72227 3.8844 8.08665 3.96157C8.45104 4.03874 8.82874 3.99913 9.17199 3.84776C9.51523 3.69638 9.80861 3.44004 10.015 3.11114C10.2214 2.78224 10.3316 2.39556 10.3316 2C10.3316 1.46957 10.1337 0.96086 9.78141 0.585787C9.42912 0.210714 8.95133 0 8.45313 0ZM1.87847 0C1.50695 0 1.14376 0.117298 0.83485 0.337061C0.525937 0.556824 0.285168 0.869181 0.142991 1.23463C0.000813906 1.60009 -0.0363861 2.00222 0.0360952 2.39018C0.108576 2.77814 0.287483 3.13451 0.550192 3.41421C0.812901 3.69392 1.14761 3.8844 1.512 3.96157C1.87639 4.03874 2.25409 3.99913 2.59733 3.84776C2.94058 3.69638 3.23396 3.44004 3.44037 3.11114C3.64677 2.78224 3.75695 2.39556 3.75695 2C3.75695 1.46957 3.55904 0.96086 3.20675 0.585787C2.85447 0.210714 2.37667 0 1.87847 0ZM15.0278 0C14.6563 0 14.2931 0.117298 13.9842 0.337061C13.6752 0.556824 13.4345 0.869181 13.2923 1.23463C13.1501 1.60009 13.1129 2.00222 13.1854 2.39018C13.2579 2.77814 13.4368 3.13451 13.6995 3.41421C13.9622 3.69392 14.2969 3.8844 14.6613 3.96157C15.0257 4.03874 15.4034 3.99913 15.7466 3.84776C16.0899 3.69638 16.3833 3.44004 16.5897 3.11114C16.7961 2.78224 16.9062 2.39556 16.9062 2C16.9062 1.46957 16.7083 0.96086 16.3561 0.585787C16.0038 0.210714 15.526 0 15.0278 0Z" fill="black"/>
</svg>
