<svg width="14" height="14" viewBox="0 0 14 14" fill="none" xmlns="http://www.w3.org/2000/svg">
<path d="M6.9987 0.333008C3.3187 0.333008 0.332031 3.31967 0.332031 6.99967C0.332031 10.6797 3.3187 13.6663 6.9987 13.6663C10.6787 13.6663 13.6654 10.6797 13.6654 6.99967C13.6654 3.31967 10.6787 0.333008 6.9987 0.333008ZM3.66536 7.49967H2.33203C2.0587 7.49967 1.83203 7.27301 1.83203 6.99967C1.83203 6.72634 2.0587 6.49967 2.33203 6.49967H3.66536C3.9387 6.49967 4.16536 6.72634 4.16536 6.99967C4.16536 7.27301 3.9387 7.49967 3.66536 7.49967ZM6.9987 8.49967C6.17203 8.49967 5.4987 7.82634 5.4987 6.99967C5.4987 6.17301 6.17203 5.49967 6.9987 5.49967C7.82536 5.49967 8.4987 6.17301 8.4987 6.99967C8.4987 7.82634 7.82536 8.49967 6.9987 8.49967ZM11.6654 7.49967H10.332C10.0587 7.49967 9.83203 7.27301 9.83203 6.99967C9.83203 6.72634 10.0587 6.49967 10.332 6.49967H11.6654C11.9387 6.49967 12.1654 6.72634 12.1654 6.99967C12.1654 7.27301 11.9387 7.49967 11.6654 7.49967Z" fill="white" fill-opacity="0.75"/>
</svg>
