<svg width="22" height="24" viewBox="0 0 22 24" fill="none" xmlns="http://www.w3.org/2000/svg">
<path d="M9.06215 5.03451C9.38431 4.16389 10.6157 4.16389 10.9379 5.03451L12.5413 9.36785C12.6426 9.64157 12.8584 9.85738 13.1321 9.95867L17.4655 11.5621C18.3361 11.8843 18.3361 13.1157 17.4655 13.4379L13.1321 15.0413C12.8584 15.1426 12.6426 15.3584 12.5413 15.6321L10.9379 19.9655C10.6157 20.8361 9.38431 20.8361 9.06215 19.9655L7.45867 15.6321C7.35738 15.3584 7.14157 15.1426 6.86785 15.0413L2.53451 13.4379C1.66389 13.1157 1.66389 11.8843 2.53451 11.5621L6.86785 9.95867C7.14157 9.85738 7.35738 9.64157 7.45867 9.36785L9.06215 5.03451Z" fill="#919191"/>
<path d="M16.0621 16.0345C16.3843 15.1639 17.6157 15.1639 17.9379 16.0345L18.1909 16.7183C18.2922 16.992 18.508 17.2078 18.7817 17.3091L19.4655 17.5621C20.3361 17.8843 20.3361 19.1157 19.4655 19.4379L18.7817 19.6909C18.508 19.7922 18.2922 20.008 18.1909 20.2817L17.9379 20.9655C17.6157 21.8361 16.3843 21.8361 16.0621 20.9655L15.8091 20.2817C15.7078 20.008 15.492 19.7922 15.2183 19.6909L14.5345 19.4379C13.6639 19.1157 13.6639 17.8843 14.5345 17.5621L15.2183 17.3091C15.492 17.2078 15.7078 16.992 15.8091 16.7183L16.0621 16.0345Z" fill="#919191"/>
<path d="M16.0621 3.03451C16.3843 2.16389 17.6157 2.16389 17.9379 3.03451L18.1909 3.7183C18.2922 3.99202 18.508 4.20783 18.7817 4.30912L19.4655 4.56215C20.3361 4.88431 20.3361 6.11569 19.4655 6.43785L18.7817 6.69088C18.508 6.79217 18.2922 7.00798 18.1909 7.2817L17.9379 7.96549C17.6157 8.83611 16.3843 8.83611 16.0621 7.96549L15.8091 7.2817C15.7078 7.00798 15.492 6.79217 15.2183 6.69088L14.5345 6.43785C13.6639 6.11569 13.6639 4.88431 14.5345 4.56215L15.2183 4.30912C15.492 4.20783 15.7078 3.99202 15.8091 3.7183L16.0621 3.03451Z" fill="#919191"/>
</svg>
