<svg width="9" height="12" viewBox="0 0 9 12" fill="none" xmlns="http://www.w3.org/2000/svg">
<path d="M8.34091 3.15909L7.94318 4.5625H0.494318L0.892045 3.15909H8.34091ZM4.71591 12L0.647727 7.0625L0.636364 5.95455H2.65341C3.1572 5.95455 3.58333 5.87689 3.93182 5.72159C4.2803 5.56629 4.54545 5.34091 4.72727 5.04545C4.90909 4.74621 5 4.38258 5 3.95455C5 3.31818 4.81061 2.8125 4.43182 2.4375C4.05303 2.0625 3.46023 1.875 2.65341 1.875H0.494318L0.909091 0.363636H2.65341C3.5928 0.363636 4.36742 0.513257 4.97727 0.8125C5.58712 1.11174 6.04167 1.52651 6.34091 2.05682C6.64015 2.58712 6.78977 3.19886 6.78977 3.89205C6.78977 4.50947 6.66667 5.06818 6.42045 5.56818C6.17424 6.06818 5.7822 6.47538 5.24432 6.78977C4.70644 7.10417 4 7.28788 3.125 7.34091L3.07386 7.35227L6.78977 11.9034V12H4.71591ZM8.34659 0.363636L7.94318 1.77841L1.98864 1.74432L2.39205 0.363636H8.34659Z" fill="#747474"/>
</svg>
