<svg width="8" height="11" viewBox="0 0 8 11" fill="none" xmlns="http://www.w3.org/2000/svg">
<path d="M7.42857 0H0.571429C0.419876 0 0.274531 0.0579454 0.167368 0.161089C0.060204 0.264233 1.23732e-09 0.404125 1.23732e-09 0.549992V10.4499C-7.18591e-06 10.555 0.0312964 10.6579 0.0902023 10.7465C0.149108 10.835 0.233148 10.9055 0.332366 10.9494C0.431584 10.9934 0.541822 11.0091 0.65002 10.9947C0.758219 10.9802 0.859844 10.9362 0.942857 10.8678L4 8.39838L7.02286 10.8403C7.07625 10.8913 7.13957 10.9317 7.2092 10.959C7.27882 10.9864 7.35337 11.0003 7.42857 10.9998C7.50353 11.0017 7.5779 10.9866 7.64571 10.9558C7.75007 10.9146 7.8394 10.8445 7.90245 10.7545C7.96549 10.6644 7.99944 10.5584 8 10.4499V0.549992C8 0.404125 7.9398 0.264233 7.83263 0.161089C7.72547 0.0579454 7.58012 0 7.42857 0ZM6.85714 9.27287L4.36571 7.2599C4.26304 7.17758 4.13363 7.13251 4 7.13251C3.86637 7.13251 3.73696 7.17758 3.63429 7.2599L1.14286 9.27287V1.09998H6.85714V9.27287Z" fill="black"/>
</svg>
