<svg width="18" height="18" viewBox="0 0 18 18" fill="none" xmlns="http://www.w3.org/2000/svg">
<path d="M13.0441 13.5441L16.75 17.2499M7.82217 1.49994C6.47288 1.49994 5.15388 1.90004 4.03198 2.64966C2.91008 3.39927 2.03566 4.46472 1.51931 5.71128C1.00296 6.95784 0.867854 8.32952 1.13109 9.65286C1.39432 10.9762 2.04407 12.1918 2.99817 13.1458C3.95227 14.0999 5.16786 14.7496 6.49123 15.0129C7.81461 15.2761 9.18632 15.141 10.4329 14.6247C11.6795 14.1083 12.745 13.2339 13.4946 12.1121C14.2442 10.9902 14.6443 9.67122 14.6443 8.32195C14.6442 6.51268 13.9254 4.77754 12.646 3.49819C11.3667 2.21884 9.63149 1.50005 7.82217 1.49994Z" stroke="#1E1E1E" stroke-width="1.5" stroke-miterlimit="10" stroke-linecap="round"/>
</svg>
