<svg width="19" height="18" viewBox="0 0 19 18" fill="none" xmlns="http://www.w3.org/2000/svg">
<path d="M8.36663 1.67242L4.62414 3.07492C3.76164 3.39742 3.05664 4.41742 3.05664 5.33992V10.9124C3.05664 11.7974 3.64165 12.9599 4.35415 13.4924L7.57914 15.8999C8.63664 16.6949 10.3766 16.6949 11.4341 15.8999L14.6591 13.4924C15.3716 12.9599 15.9566 11.7974 15.9566 10.9124V5.33992C15.9566 4.41742 15.2516 3.39742 14.3891 3.07492L10.6466 1.67242C10.0091 1.43992 8.98913 1.43992 8.36663 1.67242Z" stroke="#747474" stroke-width="1.5" stroke-linecap="round" stroke-linejoin="round"/>
<path d="M9.49805 11.625C11.1549 11.625 12.498 10.2819 12.498 8.625C12.498 6.96815 11.1549 5.625 9.49805 5.625C7.84119 5.625 6.49805 6.96815 6.49805 8.625C6.49805 10.2819 7.84119 11.625 9.49805 11.625Z" stroke="#747474" stroke-width="1.5" stroke-miterlimit="10" stroke-linecap="round" stroke-linejoin="round"/>
<path d="M9.68555 7.68652V8.38402C9.68555 8.64652 9.55055 8.89402 9.31805 9.02902L8.74805 9.37402" stroke="#747474" stroke-width="1.5" stroke-miterlimit="10" stroke-linecap="round" stroke-linejoin="round"/>
</svg>
