<svg width="24" height="24" viewBox="0 0 24 24" fill="none" xmlns="http://www.w3.org/2000/svg">
<path d="M8.35171 3.19226L11.2215 0.322471C11.6515 -0.10749 12.3486 -0.10749 12.7785 0.322471L15.6483 3.19226H19.7068C20.3149 3.19226 20.8078 3.68518 20.8078 4.29322V8.35171L23.6776 11.2215C24.1075 11.6515 24.1075 12.3486 23.6776 12.7785L20.8078 15.6483V19.7068C20.8078 20.3149 20.3149 20.8078 19.7068 20.8078H15.6483L12.7785 23.6776C12.3486 24.1075 11.6515 24.1075 11.2215 23.6776L8.35171 20.8078H4.29322C3.68518 20.8078 3.19226 20.3149 3.19226 19.7068V15.6483L0.322471 12.7785C-0.10749 12.3486 -0.10749 11.6515 0.322471 11.2215L3.19226 8.35171V4.29322C3.19226 3.68518 3.68518 3.19226 4.29322 3.19226H8.35171ZM5.39419 5.39419V9.26379L2.65798 12L5.39419 14.7363V18.6058H9.26379L12 21.3421L14.7363 18.6058H18.6058V14.7363L21.3421 12L18.6058 9.26379V5.39419H14.7363L12 2.65798L9.26379 5.39419H5.39419ZM12 16.4039C9.56781 16.4039 7.59613 14.4322 7.59613 12C7.59613 9.56781 9.56781 7.59613 12 7.59613C14.4322 7.59613 16.4039 9.56781 16.4039 12C16.4039 14.4322 14.4322 16.4039 12 16.4039ZM12 14.202C13.2162 14.202 14.202 13.2162 14.202 12C14.202 10.7839 13.2162 9.79809 12 9.79809C10.7839 9.79809 9.79809 10.7839 9.79809 12C9.79809 13.2162 10.7839 14.202 12 14.202Z" fill="#D7D7D7"/>
</svg>
