<svg width="18" height="16" viewBox="0 0 18 16" fill="none" xmlns="http://www.w3.org/2000/svg">
<path d="M6.49396 3.38545C7.38084 1.79504 7.82393 0.999832 8.48682 0.999832C9.1497 0.999832 9.59279 1.79504 10.4797 3.38545L10.7093 3.79705C10.9613 4.24925 11.0873 4.47535 11.2832 4.62446C11.4792 4.77356 11.7242 4.82886 12.2142 4.93946L12.6594 5.04026C14.3814 5.43016 15.2417 5.62476 15.4468 6.28347C15.6511 6.94147 15.0646 7.62817 13.8907 9.00088L13.5869 9.35579C13.2537 9.74569 13.0864 9.94099 13.0115 10.1818C12.9366 10.4233 12.9618 10.6837 13.0122 11.2038L13.0584 11.6777C13.2355 13.5096 13.3244 14.4252 12.7882 14.8319C12.252 15.2386 11.4456 14.8676 9.83428 14.1256L9.41639 13.9338C8.9586 13.7224 8.72971 13.6174 8.48682 13.6174C8.24392 13.6174 8.01503 13.7224 7.55724 13.9338L7.14005 14.1256C5.52799 14.8676 4.7216 15.2386 4.18612 14.8326C3.64923 14.4252 3.73813 13.5096 3.91522 11.6777L3.96142 11.2045C4.01182 10.6837 4.03702 10.4233 3.96142 10.1825C3.88722 9.94099 3.71993 9.74569 3.38674 9.35649L3.08294 9.00088C1.90907 7.62887 1.32248 6.94217 1.52688 6.28347C1.73128 5.62476 2.59295 5.42946 4.31491 5.04026L4.7601 4.93946C5.24939 4.82886 5.49369 4.77356 5.69038 4.62446C5.88708 4.47535 6.01237 4.24925 6.26437 3.79705L6.49396 3.38545Z" fill="#FFB800"/>
</svg>
