<svg width="22" height="23" viewBox="0 0 22 23" fill="none" xmlns="http://www.w3.org/2000/svg">
<path d="M9.06215 4.53451C9.38431 3.66389 10.6157 3.66389 10.9379 4.53451L12.5413 8.86785C12.6426 9.14157 12.8584 9.35738 13.1321 9.45867L17.4655 11.0621C18.3361 11.3843 18.3361 12.6157 17.4655 12.9379L13.1321 14.5413C12.8584 14.6426 12.6426 14.8584 12.5413 15.1321L10.9379 19.4655C10.6157 20.3361 9.38431 20.3361 9.06215 19.4655L7.45867 15.1321C7.35738 14.8584 7.14157 14.6426 6.86785 14.5413L2.53451 12.9379C1.66389 12.6157 1.66389 11.3843 2.53451 11.0621L6.86785 9.45867C7.14157 9.35738 7.35738 9.14157 7.45867 8.86785L9.06215 4.53451Z" fill="white"/>
<path d="M16.0621 15.5345C16.3843 14.6639 17.6157 14.6639 17.9379 15.5345L18.1909 16.2183C18.2922 16.492 18.508 16.7078 18.7817 16.8091L19.4655 17.0621C20.3361 17.3843 20.3361 18.6157 19.4655 18.9379L18.7817 19.1909C18.508 19.2922 18.2922 19.508 18.1909 19.7817L17.9379 20.4655C17.6157 21.3361 16.3843 21.3361 16.0621 20.4655L15.8091 19.7817C15.7078 19.508 15.492 19.2922 15.2183 19.1909L14.5345 18.9379C13.6639 18.6157 13.6639 17.3843 14.5345 17.0621L15.2183 16.8091C15.492 16.7078 15.7078 16.492 15.8091 16.2183L16.0621 15.5345Z" fill="white"/>
<path d="M16.0621 2.53451C16.3843 1.66389 17.6157 1.66389 17.9379 2.53451L18.1909 3.2183C18.2922 3.49202 18.508 3.70783 18.7817 3.80912L19.4655 4.06215C20.3361 4.38431 20.3361 5.61569 19.4655 5.93785L18.7817 6.19088C18.508 6.29217 18.2922 6.50798 18.1909 6.7817L17.9379 7.46549C17.6157 8.33611 16.3843 8.33611 16.0621 7.46549L15.8091 6.7817C15.7078 6.50798 15.492 6.29217 15.2183 6.19088L14.5345 5.93785C13.6639 5.61569 13.6639 4.38431 14.5345 4.06215L15.2183 3.80912C15.492 3.70783 15.7078 3.49202 15.8091 3.2183L16.0621 2.53451Z" fill="white"/>
</svg>
